<?xml version="1.0" encoding="utf-8"?>
<!-- Generator: Adobe Illustrator 27.5.0, SVG Export Plug-In . SVG Version: 6.00 Build 0)  -->
<svg version="1.1" id="Layer_1" xmlns="http://www.w3.org/2000/svg" xmlns:xlink="http://www.w3.org/1999/xlink" x="0px" y="0px"
	 viewBox="0 0 1316.9 182.5" style="enable-background:new 0 0 1316.9 182.5;" xml:space="preserve">
<style type="text/css">
	.st0{fill:url(#SVGID_1_);}
	.st1{fill:#FFFFFF;}
</style>
<g>
	<g>
		<g>
			<linearGradient id="SVGID_1_" gradientUnits="userSpaceOnUse" x1="0" y1="89.7553" x2="353.6848" y2="89.7553">
				<stop  offset="0" style="stop-color:#CB7FF5"/>
				<stop  offset="1" style="stop-color:#C418FC"/>
			</linearGradient>
			<path class="st0" d="M249.3,1.8L219.5,31l37,36.3L210,113.1L94.9,0L0,93.3l87.7,86.2l65.1-64.1l57.1,56.2l76.3-75l37.8,37.1
				l29.7-29.2L249.3,1.8z M87.7,121L59.4,93.3l35.5-34.9l28.2,27.8L87.7,121z"/>
		</g>
	</g>
	<g>
		<path class="st1" d="M545.9,88.1c-4.8,8.5-12.2,15.4-22.2,20.7c-10,5.2-22.3,7.9-37.1,7.9h-27.3v63.9h-44.1V2.6h71.4
			c14.4,0,26.6,2.5,36.6,7.3c10,4.9,17.4,11.7,22.4,20.3c5,8.6,7.5,18.5,7.5,29.7C553.1,70.2,550.7,79.6,545.9,88.1z M502.1,76.3
			c4.1-3.9,6.2-9.4,6.2-16.5c0-7.1-2.1-12.6-6.2-16.5c-4.1-3.9-10.4-5.8-18.8-5.8h-24v44.6h24C491.7,82.1,498,80.2,502.1,76.3z"/>
		<path class="st1" d="M710.8,120.2h-99.7c0.7,8.8,3.6,15.5,8.6,20.1c5.1,4.6,11.3,7,18.7,7c11,0,18.6-4.6,22.9-13.7h46.9
			c-2.4,9.3-6.7,17.7-13,25.1c-6.3,7.4-14.1,13.3-23.6,17.5c-9.4,4.2-20,6.3-31.7,6.3c-14.1,0-26.6-3-37.6-8.9
			c-11-5.9-19.6-14.4-25.8-25.3c-6.2-11-9.3-23.8-9.3-38.5c0-14.7,3-27.5,9.1-38.5c6.1-11,14.6-19.4,25.6-25.3
			c11-5.9,23.6-8.9,37.9-8.9c13.9,0,26.3,2.9,37.1,8.6c10.8,5.7,19.3,13.9,25.4,24.6c6.1,10.6,9.1,23.1,9.1,37.3
			C711.6,111.5,711.3,115.8,710.8,120.2z M666.5,96.1c0-7.4-2.6-13.3-7.7-17.7c-5.2-4.4-11.6-6.6-19.3-6.6c-7.4,0-13.6,2.1-18.7,6.3
			c-5.1,4.2-8.2,10.2-9.4,18H666.5z"/>
		<path class="st1" d="M862.7,53.6c10,10.7,15.1,25.5,15.1,44.2v82.6H834v-76.8c0-9.5-2.5-16.8-7.5-22c-5-5.2-11.7-7.9-20.1-7.9
			c-8.4,0-15.1,2.6-20.1,7.9c-5,5.2-7.5,12.6-7.5,22v76.8h-44.1V39.1h44.1v18.8c4.5-6.2,10.5-11.2,18-14.8
			c7.6-3.6,16.1-5.4,25.5-5.4C839.2,37.5,852.7,42.9,862.7,53.6z"/>
		<path class="st1" d="M988.6,143.7v36.7h-22.4c-16,0-28.4-3.8-37.4-11.5c-8.9-7.7-13.4-20.2-13.4-37.6V75.1h-17.5v-36h17.5V4.6
			h44.1v34.5h28.9v36h-28.9v56.8c0,4.2,1,7.3,3.1,9.1c2.1,1.9,5.5,2.8,10.3,2.8H988.6z"/>
		<path class="st1" d="M1147.8,120.2h-99.7c0.7,8.8,3.6,15.5,8.6,20.1c5.1,4.6,11.3,7,18.7,7c11,0,18.6-4.6,22.9-13.7h46.9
			c-2.4,9.3-6.7,17.7-13,25.1c-6.3,7.4-14.1,13.3-23.6,17.5c-9.4,4.2-20,6.3-31.7,6.3c-14.1,0-26.6-3-37.6-8.9
			c-11-5.9-19.6-14.4-25.8-25.3c-6.2-11-9.3-23.8-9.3-38.5c0-14.7,3-27.5,9.1-38.5c6.1-11,14.6-19.4,25.6-25.3
			c11-5.9,23.6-8.9,37.9-8.9c13.9,0,26.3,2.9,37.1,8.6c10.8,5.7,19.3,13.9,25.4,24.6c6.1,10.6,9.1,23.1,9.1,37.3
			C1148.6,111.5,1148.3,115.8,1147.8,120.2z M1103.5,96.1c0-7.4-2.6-13.3-7.7-17.7c-5.2-4.4-11.6-6.6-19.3-6.6
			c-7.4,0-13.6,2.1-18.7,6.3c-5.1,4.2-8.2,10.2-9.4,18H1103.5z"/>
		<path class="st1" d="M1172.1,71.2c6.1-11,14.6-19.4,25.5-25.3c10.9-5.9,23.4-8.9,37.5-8.9c18,0,33.1,4.6,45.2,13.9
			c12.1,9.3,20.1,22.4,23.8,39.3h-46.9c-4-10.8-11.6-16.2-22.9-16.2c-8.1,0-14.5,3.1-19.3,9.2c-4.8,6.2-7.2,15-7.2,26.5
			c0,11.5,2.4,20.3,7.2,26.5c4.8,6.2,11.2,9.3,19.3,9.3c11.3,0,19-5.4,22.9-16.2h46.9c-3.8,16.6-11.8,29.6-24,39
			c-12.2,9.5-27.2,14.2-45.1,14.2c-14.1,0-26.6-3-37.5-8.9c-10.9-5.9-19.4-14.4-25.5-25.3c-6.1-11-9.1-23.8-9.1-38.5
			C1163,95.1,1166,82.2,1172.1,71.2z"/>
	</g>
</g>
</svg>
