<?xml version="1.0" encoding="utf-8"?>
<!-- Generator: Adobe Illustrator 27.5.0, SVG Export Plug-In . SVG Version: 6.00 Build 0)  -->
<svg version="1.1" id="Layer_1" xmlns="http://www.w3.org/2000/svg" xmlns:xlink="http://www.w3.org/1999/xlink" x="0px" y="0px"
	 viewBox="0 0 33 32" style="enable-background:new 0 0 33 32;" xml:space="preserve">
<style type="text/css">
	.st0{fill:url(#SVGID_1_);}
</style>
<linearGradient id="SVGID_1_" gradientUnits="userSpaceOnUse" x1="-6.102939e-04" y1="16.0012" x2="32.0036" y2="16.0012">
	<stop  offset="0" style="stop-color:#8CAAEC"/>
	<stop  offset="1" style="stop-color:#3861EE"/>
</linearGradient>
<path class="st0" d="M25.5,19.7c-0.4,0.4-0.6,1-0.5,1.6l1.4,7.9c0.1,0.7-0.2,1.3-0.7,1.7c-0.5,0.4-1.3,0.4-1.9,0.1l-7.1-3.7
	c-0.2-0.1-0.5-0.2-0.8-0.2h-0.4c-0.2,0-0.3,0.1-0.4,0.1l-7.1,3.7c-0.4,0.2-0.7,0.2-1.1,0.2c-0.9-0.2-1.6-1.1-1.4-2l1.4-7.9
	c0.1-0.6-0.1-1.2-0.5-1.6L0.5,14c-0.5-0.5-0.7-1.2-0.4-1.8c0.2-0.6,0.8-1.1,1.4-1.2l8-1.2c0.6-0.1,1.1-0.4,1.4-1l3.5-7.2
	c0.1-0.2,0.2-0.3,0.3-0.4l0.1-0.1C14.9,1.1,15,1,15.1,1l0.2-0.1l0.3-0.1h0.7c0.6,0.1,1.1,0.4,1.4,1l3.6,7.2c0.3,0.5,0.8,0.9,1.3,1
	l8,1.2c0.7,0.1,1.2,0.6,1.5,1.2c0.2,0.6,0,1.3-0.5,1.8L25.5,19.7z"/>
</svg>
